<?xml version="1.0" encoding="utf-8"?>
<!-- Generator: Adobe Illustrator 23.1.0, SVG Export Plug-In . SVG Version: 6.00 Build 0)  -->
<svg version="1.1" id="Capa_1" xmlns="http://www.w3.org/2000/svg" xmlns:xlink="http://www.w3.org/1999/xlink" x="0px" y="0px"
	 viewBox="0 0 56.7 56.7" style="enable-background:new 0 0 56.7 56.7;" xml:space="preserve">
<style type="text/css">
	.st0{fill:#FCFCFC;}
</style>
<g>
	<g>
		<path class="st0" d="M31.5,28.3L56,3.8c0.9-0.9,0.9-2.3,0-3.1s-2.3-0.9-3.1,0L28.3,25.2L3.8,0.6c-0.9-0.9-2.3-0.9-3.1,0
			s-0.9,2.3,0,3.1l24.6,24.6L0.6,52.9c-0.9,0.9-0.9,2.3,0,3.1c0.4,0.4,1,0.6,1.6,0.6s1.1-0.2,1.6-0.6l24.6-24.6L52.9,56
			c0.4,0.4,1,0.6,1.6,0.6c0.6,0,1.1-0.2,1.6-0.6c0.9-0.9,0.9-2.3,0-3.1L31.5,28.3z"/>
	</g>
</g>
</svg>
