<?xml version="1.0" encoding="utf-8"?>
<!-- Generator: Adobe Illustrator 23.1.0, SVG Export Plug-In . SVG Version: 6.00 Build 0)  -->
<svg version="1.1" id="Layer_1" xmlns="http://www.w3.org/2000/svg" xmlns:xlink="http://www.w3.org/1999/xlink" x="0px" y="0px"
	 viewBox="0 0 56.7 56.7" style="enable-background:new 0 0 56.7 56.7;" xml:space="preserve">
<style type="text/css">
	.st0{fill:#FFFFFF;}
</style>
<g>
	<path class="st0" d="M41.1-0.1H15.6c-8.7,0-15.7,7-15.7,15.7v25.5c0,8.7,7,15.7,15.7,15.7h25.5c8.7,0,15.7-7,15.7-15.7V15.6
		C56.9,6.9,49.8-0.1,41.1-0.1z M51.8,41.1c0,5.9-4.8,10.7-10.7,10.7H15.6C9.7,51.8,4.9,47,4.9,41.1V15.6c0-5.9,4.8-10.7,10.7-10.7
		h25.5c5.9,0,10.7,4.8,10.7,10.7L51.8,41.1L51.8,41.1z"/>
	<path class="st0" d="M28.4,13.7c-8.1,0-14.7,6.6-14.7,14.7s6.6,14.7,14.7,14.7s14.7-6.6,14.7-14.7C43.1,20.3,36.5,13.7,28.4,13.7z
		 M28.4,38c-5.3,0-9.6-4.3-9.6-9.6c0-5.3,4.3-9.6,9.6-9.6s9.6,4.3,9.6,9.6C38,33.7,33.7,38,28.4,38z"/>
	<path class="st0" d="M43.7,9.4c-1,0-1.9,0.4-2.6,1.1c-0.7,0.7-1.1,1.7-1.1,2.6s0.4,1.9,1.1,2.6c0.7,0.7,1.7,1.1,2.6,1.1
		c1,0,1.9-0.4,2.6-1.1c0.7-0.7,1.1-1.7,1.1-2.6s-0.4-1.9-1.1-2.6C45.6,9.8,44.6,9.4,43.7,9.4z"/>
</g>
</svg>
