<svg id="Livello_1" data-name="Livello 1" xmlns="http://www.w3.org/2000/svg" viewBox="0 0 168 131.77"><defs><style>.cls-1{fill:#c32427;}.cls-2{fill:#a31e22;}.cls-3{fill:#e54625;}.cls-4{fill:#156c3a;}.cls-5{fill:#88be46;}.cls-6{fill:#fff;}.cls-7{fill:none;stroke:#fff;}</style></defs><title>logo-PP</title><path class="cls-1" d="M110.57,88.61a1.83,1.83,0,0,1-2,1.68,1.79,1.79,0,0,1-1.41-2.15,1.71,1.71,0,1,1,3.38.47Z"/><path class="cls-1" d="M117.2,79.57a.72.72,0,0,1-.85,1.16.63.63,0,0,1-.14-.94A.69.69,0,0,1,117.2,79.57Z"/><path class="cls-2" d="M112.28,70a28.64,28.64,0,0,1-5.16,8.6c-3.06,3.69-6.33,7.17-10.65,9.46a33.38,33.38,0,0,1-18.36,3.52A36.91,36.91,0,0,1,54.75,81.29c-.89-.85-1.82-1.66-2.74-2.48a12.3,12.3,0,0,1-4.22-10.72,20.07,20.07,0,0,1,5.53-12.78,2.69,2.69,0,0,1,.9-.74,1,1,0,0,0,.85.07,5.07,5.07,0,0,1,1.5-.25,8.87,8.87,0,0,1,4.12,1.1,7.28,7.28,0,0,1,4,5.73c.25,2,.34,3.92.75,5.86a6.44,6.44,0,0,0,4.47,4.62c1.29.26,2.59.47,3.88.74a8.89,8.89,0,0,1,4.48,1.92,16.76,16.76,0,0,0,5.19,3.31,9.38,9.38,0,0,0,4.75.64c2-.22,3.59-1.29,5.25-2.21a13.83,13.83,0,0,1,6.82-1.89c1.57,0,3.1.36,4.66.38a3.06,3.06,0,0,0,2.18-.88,8.22,8.22,0,0,0,2.06-3.93c.38-1.19.69-2.41,1-3.64.11-.49.36-1.2.92-1.17s.72.68.87,1.23C112.3,67.47,111.87,68.79,112.28,70Z"/><path class="cls-3" d="M56.91,52.67a10.79,10.79,0,0,1,8.71-.82,10.94,10.94,0,0,1,4.48,2.92A38.22,38.22,0,0,0,83.75,63.5a21.17,21.17,0,0,0,3.59.89c.28,0,.66,0,.68.45s-.33.41-.57.51a17,17,0,0,1-3.88,1.14l-.89.16c-.2,0-.46.08-.45.35s.29.35.53.37c9,.9,16.54-1.63,22-9.17,1.63-2.27,2.85-4.81,4.65-7a14.55,14.55,0,0,1,6.16-4.69,5.88,5.88,0,0,1,2.49-.34c1.75.14,2.55,1.57,1.63,3.06-.61,1-1.38,1.87-2.07,2.81-.23-.08-.21-.23-.17-.44a2.6,2.6,0,0,0,0-1.41c-.11-.39-.24-.76-.7-.85a1.06,1.06,0,0,0-1.18.45,16.83,16.83,0,0,0-1,1.49c-1.42,2.57-2.41,5.34-3.63,8-.93,2-1.74,4.12-2.61,6.19a29.8,29.8,0,0,1-2.49,4.87,2.36,2.36,0,0,1-2.17,1.16,21.73,21.73,0,0,0-3.7.06,23.38,23.38,0,0,0-6.62,2.49,12.48,12.48,0,0,1-4.8,1.4c-2.46.13-4.46-1-6.37-2.38a20.45,20.45,0,0,0-7.34-3.67,24.07,24.07,0,0,1-2.9-.6c-1.47-.53-2.77-1.27-3.12-2.94a23.48,23.48,0,0,1-.44-3A10.29,10.29,0,0,0,67,58.74a13.54,13.54,0,0,0-4.23-4.58,7,7,0,0,0-5.27-1.31C57.25,52.9,57,53,56.91,52.67ZM98.08,70.32a4.37,4.37,0,0,0,2.15-.84,14.43,14.43,0,0,0,4.19-4.77c1.72-2.82,3.21-5.79,5.59-8.16a1.79,1.79,0,0,0,.44-.88c.2-.81-.06-1.71-.58-1.8-.84-.13-1.08.55-1.32,1.11-.49,1.1-.86,2.25-1.37,3.34-1.27,2.65-2.89,5-5.73,6.22-.78.34-1.53.71-2.28,1.09a7,7,0,0,0-2.44,1.67,1.75,1.75,0,0,0-.13,2A1.52,1.52,0,0,0,98.08,70.32ZM114,50.45c0-.43-.14-.7-.58-.73a1.43,1.43,0,0,0-1.25,1.2c0,.44.13.78.6.85S113.93,51.1,114,50.45Z"/><path class="cls-1" d="M56.91,52.67c.13.31.34.23.6.19a6.88,6.88,0,0,1,5.27,1.31A13.32,13.32,0,0,1,67,58.75a10.21,10.21,0,0,1,1.35,4.15,23.3,23.3,0,0,0,.43,3c.36,1.68,1.65,2.41,3.13,2.94a23.71,23.71,0,0,0,2.9.61,20.17,20.17,0,0,1,7.33,3.67c1.91,1.35,3.91,2.51,6.37,2.37a12.64,12.64,0,0,0,4.81-1.39,22.86,22.86,0,0,1,6.62-2.49,20.65,20.65,0,0,1,3.69-.06,2.37,2.37,0,0,0,2.18-1.17,28.24,28.24,0,0,0,2.48-4.87c.87-2.06,1.69-4.15,2.62-6.19,1.22-2.66,2.2-5.43,3.62-8,.29-.53.67-1,1-1.49a1.06,1.06,0,0,1,1.19-.44c.46.09.58.46.7.84a2.74,2.74,0,0,1,0,1.42c0,.2-.06.35.17.43-2,4.6-2.61,9.57-4.08,14.31-.39,1.23-.84,2.44-1.26,3.66-.41-1.25,0-2.56-.34-3.83-.15-.55-.35-1.21-.87-1.23s-.82.68-.92,1.17c-.27,1.23-.58,2.44-1,3.64a8.4,8.4,0,0,1-2.06,3.93,3.06,3.06,0,0,1-2.18.88c-1.56,0-3.09-.39-4.66-.38a14.06,14.06,0,0,0-6.82,1.88c-1.66.94-3.27,2-5.25,2.22a9.38,9.38,0,0,1-4.75-.64,16.76,16.76,0,0,1-5.19-3.31,8.89,8.89,0,0,0-4.48-1.92c-1.29-.28-2.59-.48-3.88-.74a6.46,6.46,0,0,1-4.47-4.62c-.41-1.94-.5-3.91-.75-5.86a7.29,7.29,0,0,0-4-5.74,8.83,8.83,0,0,0-4.12-1.09,5,5,0,0,0-1.5.25.91.91,0,0,1-.85-.08A7.84,7.84,0,0,1,56.91,52.67Z"/><path class="cls-4" d="M46.7,56.43a16.41,16.41,0,0,1-6.48-8.81A3.6,3.6,0,0,1,42.35,43a6.48,6.48,0,0,1,2.56,4.48,14.81,14.81,0,0,0,2.54,6.18,10,10,0,0,1,.94,1.73c.18.43.39,1,0,1.37s-.73-.1-1.11,0l-.19-.1L47,56.57l-.18-.09v-.06Z"/><path class="cls-5" d="M47.3,56.77c.38-.07.78.4,1.11,0s.16-1,0-1.37a9.33,9.33,0,0,0-.94-1.73,14.72,14.72,0,0,1-2.54-6.19,6.46,6.46,0,0,0-2.56-4.47,2.63,2.63,0,0,1,2.86.28,3.77,3.77,0,0,1,1.89,3.39,14.67,14.67,0,0,0,1.66,7.72,2.94,2.94,0,0,1,.29,1.4C49,57.06,48.42,57.38,47.3,56.77Z"/><path class="cls-5" d="M47,56.57l.16.09C47,56.71,47,56.67,47,56.57Z"/><path class="cls-5" d="M46.7,56.43h.06v.06H46.7Z"/><path class="cls-6" d="M98.08,70.32a1.48,1.48,0,0,1-1.47-1,1.73,1.73,0,0,1,.13-2,6.84,6.84,0,0,1,2.43-1.68c.75-.37,1.51-.75,2.28-1.08,2.84-1.23,4.47-3.57,5.73-6.23.52-1.08.89-2.23,1.37-3.33.25-.57.49-1.25,1.32-1.11.53.08.79,1,.59,1.79a1.84,1.84,0,0,1-.44.88c-2.38,2.37-3.87,5.34-5.59,8.16a14.33,14.33,0,0,1-4.19,4.77A4.45,4.45,0,0,1,98.08,70.32Z"/><path class="cls-6" d="M44.78,13.66a6.69,6.69,0,0,1-.42,3.76,6,6,0,0,1-1.35,2,6.13,6.13,0,0,1-1.55,1.11,5.05,5.05,0,0,0-1.11.68l2.37,4.66h0c.21.08.65,0,.8.31s-.16.4-.36.53c-.82.46-1.46.84-1.65.93h0c-1,.54-1.2.64-1.29.4a.73.73,0,0,1-.06-.28c0-.22.19-.44.18-.58s-4.15-8-6.19-11.32L34,15.7l-.27-.45c-.07-.11-.25-.37-.42-.59a1.94,1.94,0,0,0-.14-.18.54.54,0,0,0-.23-.16c-.18-.07-.7,0-.87-.22s.27-.45.5-.62c.66-.42,1.06-.64,1.58-1a5,5,0,0,0,.61-.31c.35-.2.71-.4,1.06-.58l.23-.13c1.92-1,4.1-2.06,5.9-1.44a2.19,2.19,0,0,1,.46.2,3.62,3.62,0,0,1,1.42,1.26A5,5,0,0,1,44.78,13.66Zm-4.43-1.53a3.36,3.36,0,0,0-3.2,0l-.39.16c-.29.13-.83.33-.68.71,0,0,.61,1.11,1.33,2.47,1.05,1.9,2.31,4.28,2.57,4.81a4.47,4.47,0,0,0,1.62-1.58,1.86,1.86,0,0,1,.1-.2,5,5,0,0,0,.6-2.76A4.4,4.4,0,0,0,40.35,12.13Z"/><path class="cls-6" d="M60.13,19.42c.09.29-.07.25-.32.31-.82.16-7.31,2.37-7.62,2.57l-.28.07a.48.48,0,0,1-.57-.23c-.1-.23,0-.31.15-.49.53-.65,0-1.51-.27-2.08h0c-1.53-3.61-3-7.22-4.47-10.86-.51-1.27-1.08-.58-1.35-.95s-.09-.51.39-.75c-.34-.06,10-3.76,10.4-3.49.25,0,.29.1.33.24.09.32,0,.36-.3.58-.39.37-.06,1,.41,2.71.1.36.07.92.62,1,.17,0,.28,0,.33.19.09.32-.44.49-1.49.79-.17.05-.86.26-1.07.3s-.45.15-.53,0a.39.39,0,0,1,0-.06c0-.21.26-.43.3-.56s.05-.49-.38-1.71c-.57-1.65-.46-1.75-.75-1.86a.73.73,0,0,0-.44,0c-4.43,1.44-4,1.13-3.32,3,.75,2.07,1.75,5.35,2.21,6.52,1.81-.65,2.13-.67,2.35-.9a1.94,1.94,0,0,0,.37-1,2.36,2.36,0,0,1,0-.46.65.65,0,0,1,1.1,0,16.12,16.12,0,0,1,1,3.08c0,.23.21.68-.19.78a1,1,0,0,1-.72-.14c-.26-.16-.6-1-1.36-.8-.29.09-2,.71-2.12.76s.18.48,1.45,4c.42,1.15.17.85,3.78-.32.43-.14.36-.51.26-.9-.31-1.1-.72-.64-.88-1a.11.11,0,0,1,0-.06c0-.08,0-.14.09-.18a12.14,12.14,0,0,1,2.4-.71c.25,0,.39.14.38.31s-.19.21-.29.39S59.75,18.07,60.13,19.42Z"/><path class="cls-6" d="M71.48,6.36A6.63,6.63,0,0,1,70,9.81a5.77,5.77,0,0,1-1.85,1.51,5.5,5.5,0,0,1-1.77.58,5.66,5.66,0,0,0-1.23.3c.27,1.72.55,3.44.83,5.16v0c.17.14.59.23.65.54s-.26.33-.48.4l-1.81.36h0c-1,.21-1.29.24-1.31,0a.53.53,0,0,1,0-.29c.09-.2.3-.35.34-.49S61.85,9,60.94,5.21c0-.09,0-.15,0-.23s-.08-.33-.12-.51-.13-.43-.21-.69c0-.1-.07-.16-.08-.22a.56.56,0,0,0-.17-.22c-.14-.12-.66-.17-.74-.48s.38-.35.65-.43C61,2.24,61.39,2.15,62,2a6.45,6.45,0,0,0,.66-.12l1.16-.22L64,1.64c2.09-.37,4.43-.69,5.93.45a2.13,2.13,0,0,1,.38.34,3.72,3.72,0,0,1,1,1.62A5.23,5.23,0,0,1,71.48,6.36ZM67.81,3.55a3.28,3.28,0,0,0-3-1l-.42,0c-.3,0-.86.06-.84.46,0,0,.24,1.24.51,2.76.42,2.13.89,4.78,1,5.36a4.2,4.2,0,0,0,2-1l.15-.15a5.06,5.06,0,0,0,1.38-2.43A4.54,4.54,0,0,0,67.81,3.55Z"/><path class="cls-6" d="M84.19,16.51c0,.29-.15.2-.4.2-.83-.1-7.6,0-8,.14a1.67,1.67,0,0,0-.27,0c-.26,0-.46-.18-.47-.39s.09-.3.29-.42c.69-.46.41-1.45.36-2.06v0q-.52-5.85-1-11.69c-.1-1.37-.83-.89-1-1.32s.07-.52.59-.6C74.1.18,85-.22,85.25.15c.22.12.25.18.24.33,0,.33-.15.33-.46.46-.48.24-.36,1-.42,2.71,0,.38-.21.9.28,1.14.16.07.26.12.25.29,0,.33-.56.33-1.64.31-.18,0-.89,0-1.1,0s-.47,0-.5-.17V5.12c0-.22.37-.34.46-.44s.19-.46.14-1.75c0-1.75.1-1.81-.14-2A.7.7,0,0,0,81.94.8c-4.6,0-4.09-.13-4,1.8.08,2.21,0,5.62.12,6.88,1.91-.07,2.21,0,2.48-.15a1.89,1.89,0,0,0,.65-.82,3,3,0,0,1,.12-.45.63.63,0,0,1,1,.3,15.55,15.55,0,0,1,0,3.25c0,.23,0,.71-.42.69a1,1,0,0,1-.63-.36c-.2-.23-.25-1.18-1-1.17-.3,0-2.1.07-2.22.08s0,.51.17,4.21c0,1.22-.1.86,3.66.84.44,0,.49-.38.52-.78,0-1.14-.49-.82-.54-1.22v-.07c0-.08.07-.12.15-.14a11.6,11.6,0,0,1,2.47.05c.24.07.33.24.27.41s-.24.14-.38.28S84.24,15.1,84.19,16.51Z"/><path class="cls-6" d="M103.12,20.9a5.67,5.67,0,0,1-1.34.76,5.48,5.48,0,0,1-3,.4l-.06,0a5.73,5.73,0,0,1-4.23-2.79c-1-1.92-.3-4.12,0-6.06a1.36,1.36,0,0,0,0-.45c-.11-.72-.85-1.24-1.86-1.44a6.61,6.61,0,0,0-1.56-.1,1.29,1.29,0,0,1,0,.19c-.12.86-.64,4.3-.74,4.9a.63.63,0,0,1,0,.11c.13.16.5.37.46.7s-.17.28-1.13.18c-.32,0-.73-.1-1.28-.14a8.57,8.57,0,0,1-1-.15c-.22-.07-.26-.14-.23-.29a.47.47,0,0,1,.11-.24c.15-.16.39-.27.47-.37s2-14,1.49-14.78c-.1-.18-.58-.38-.56-.7,0-.17.13-.22.66-.22.36,0,1,.06,1.86.17L93.35.8A11.1,11.1,0,0,1,97.63,2a5.1,5.1,0,0,1,.84.66c2.27,2.5.3,7.06-3.29,8.35.4-.15,1.28.81,1.41,1.05.73,1.23-.27,2.78-.57,4-.44,1.66-.63,3.87,1.43,4.68a5.79,5.79,0,0,0,3,.4,5.9,5.9,0,0,0,2.76-1.55c1.09-1.2,1.59-2.44.59-4-1.62-2.38-5.59-1.35-5,.33a.62.62,0,0,0,.35.49c.39.12.75-.18,1.16-.24a1.05,1.05,0,0,1,1.1.7c.45,1.37-2.56,2.14-3.62-.06-1.54-3,4-5.09,6.67-1.9C106.14,16.69,105.15,19.37,103.12,20.9Zm-7.39-13a4.45,4.45,0,0,0,.57-1.21,4.71,4.71,0,0,0,.17-2.17,3.59,3.59,0,0,0-.21-.74c0-.07-.08-.16-.13-.23A.45.45,0,0,0,96,3.32,3.36,3.36,0,0,0,93.7,2a1.77,1.77,0,0,0-.38-.09c-.32-.07-.86-.21-1,.16,0,0-.14,1.25-.35,2.8-.08.75-.18,1.57-.26,2.34s-.23,1.76-.32,2.34c0,.23-.08.42-.09.54s0,.13,0,.17l.25,0h.22a1.79,1.79,0,0,1,.23,0,.89.89,0,0,0,.23,0s.11,0,.16,0,0,0,0,0l.18,0,.18,0,.16,0a.71.71,0,0,0,.16-.07,1.53,1.53,0,0,0,.27-.11s0,0,0,0l0,0c.05,0,.13,0,.19-.1a5.15,5.15,0,0,0,.56-.33A6,6,0,0,0,94.71,9,4.36,4.36,0,0,0,95.73,7.86ZM93,11.33h0Zm7.52-4.73a5,5,0,0,1,3.34-3.41,4.11,4.11,0,0,1,1.82,0,3.61,3.61,0,0,1,3.19,3.46c0,.29,0,.55-.06.83-.33,2.07-2,6.41-5.23,5.73a4,4,0,0,1-3.08-2.57A6.25,6.25,0,0,1,100.51,6.6ZM103,8.7l0,.14c-.17,1-.48,2.92.73,3.49l.28.1c.66.17,1.33-.25,2-1.31a15,15,0,0,0,.83-1.45,6.26,6.26,0,0,0,.84-3.93,1.5,1.5,0,0,0-.82-1.26l-.4-.13c-1.28-.34-2.12.37-2.82,2.32l0,0A10.22,10.22,0,0,0,103,8.7Z"/><path class="cls-6" d="M123.41,10.7a.73.73,0,0,0-.24.23c-.42.92-.8,1.75-1.14,2.45s-.65,1.37-.83,1.75l-1.47,3c-.33.66-.67,1.34-1,2-.46.95-.93,1.89-1.4,2.84a3.69,3.69,0,0,1-.26.53,3.75,3.75,0,0,0-.24.44.17.17,0,0,0,0,.1.32.32,0,0,0,.08.23c.1.07.17.13.16.27a.67.67,0,0,1-.07.18.25.25,0,0,1-.16.17c-.17.08-.43-.09-.62-.19l-.78-.37a1.89,1.89,0,0,1-.19-.14,1.26,1.26,0,0,1-.33-.69h0a12.14,12.14,0,0,1-.12-1.3c-.16-4.81-.59-7.69-.92-12.43a1.78,1.78,0,0,0-.14-.73s0,0,0,0c-.21.56-.41,1.16-.63,1.77s-.54,1.44-.81,2.1l-1.17,3.14c-.14.4-.37,1-.69,1.81s-.6,1.55-1,2.5a.83.83,0,0,0,0,.32c.05.2.43.54.3.88s-.48.09-.71,0c0,0,0,0,0,0l-1.14-.41s0,0,0,0c-.21-.09-.63-.19-.53-.47s.62-.37.79-.49a2.7,2.7,0,0,0,.41-.75s0,0,0,0c1.07-2.88,1.88-5.19,2.22-6.14,0,0,.89-2.59,1.35-3.81.25-.63.47-1.27.72-1.87s.53-1.27.31-1.64a1.88,1.88,0,0,0-.49-.23.38.38,0,0,1-.05-.35c.05-.16.24-.19.43-.12.63.22,1.23.41,1.84.61a8.46,8.46,0,0,1,1,.37c1,.41,1.22,10.82,1.17,14.26v.35c.54-1.21,1.94-4.16,2-4.18.42-.9,1.48-3.13,2.76-5.92a2.19,2.19,0,0,0,.2-.82s0,0,0-.05c0-.2-.47-.59-.32-.91s.5-.07.76.05a.11.11,0,0,1,.08,0h.06l1.33.64h0c.26.18.74.37.61.64S123.59,10.6,123.41,10.7Z"/><path class="cls-6" d="M123.11,27.91a.52.52,0,0,1-.62.14l-.39-.17c-.73-.36-1.9-1.08-2.29-1.31,0,0-.06,0-.07-.06-.22-.14-.61-.31-.47-.57s.67-.23.86-.34a5.13,5.13,0,0,0,.79-1.06c.4-.72.67-1.17.84-1.47l1.08-1.95c1-1.9,2.12-3.77,3.2-5.65h0c.29-.58.62-1.17.91-1.76a1.92,1.92,0,0,0,.2-.64,1,1,0,0,0-.21-.62c-.14-.17-.29-.3-.16-.54s.41-.23.66-.15A3.41,3.41,0,0,1,128,12a22.43,22.43,0,0,1,2.62,1.5l.12.08c.23.16.69.41.54.66s-.77.16-.95.24a4.12,4.12,0,0,0-.86,1l-.35.58v0l-.68,1.14-2,3.58c-.74,1.28-1.54,2.52-2.3,3.79-.11.18-.34.58-.64,1.12l-.27.45a1.68,1.68,0,0,0-.22.6.76.76,0,0,0,.12.59C123.14,27.55,123.26,27.67,123.11,27.91Z"/><path class="cls-6" d="M43,112.19a6.12,6.12,0,0,1-3.06,2.13,5.2,5.2,0,0,1-2.39.17,5.43,5.43,0,0,1-1.79-.64,5.84,5.84,0,0,0-1.16-.57l-2.75,4.45h0c.05.23.37.6.22.88s-.47,0-.72-.06c-.94-.54-1.67-1-1.87-1.11h0c-1.06-.65-1.29-.85-1.11-1a.51.51,0,0,1,.23-.18c.23-.06.52,0,.65-.07s5.13-7.4,7.09-10.79l.12-.2.27-.45c.07-.11.21-.39.33-.64a1.78,1.78,0,0,0,.1-.21.54.54,0,0,0,0-.26c0-.18-.26-.53-.1-.8s.44,0,.65.07l1.26.71a4.57,4.57,0,0,0,.47.29l.83.47.17.1c1.5.85,3.17,1.71,3.62,3.36a2.78,2.78,0,0,1,.08.46,4.41,4.41,0,0,1-.15,1.84A6,6,0,0,1,43,112.19ZM41.81,108a2.8,2.8,0,0,0-1.41-2.36c-.09-.07-.17-.11-.28-.2s-.57-.43-.81-.11c0,0-.62,1.11-1.39,2.44-1.06,1.89-2.42,4.22-2.73,4.73a3.84,3.84,0,0,0,2.15.45,1.66,1.66,0,0,1,.22,0,4.47,4.47,0,0,0,2.49-1.18A5,5,0,0,0,41.81,108Z"/><path class="cls-6" d="M50.84,126.69c-.09.28-.22.15-.5.06-.94-.18-8.28-3-8.61-3.25l-.28-.16c-.25-.16-.38-.4-.3-.59s.24-.22.5-.22c.92,0,1.09-1.07,1.33-1.63v0c1.46-3.64,3-7.23,4.5-10.84.54-1.26-.21-1.12-.12-1.57.06-.29.29-.42.7-.29-.26,0,7.93,2.91,8.15,3s.14.22.09.36c-.1.32-.2.29-.48.35-.44.13-.56.87-1.08,2.51-.12.36-.43.82-.08,1.17.11.1.19.17.14.33-.1.32-.58.2-1.5-.1-.15,0-.76-.25-.93-.34s-.4-.13-.37-.3a.2.2,0,0,1,0-.06c.09-.19.42-.21.52-.29s.31-.38.68-1.62c.52-1.67.65-1.69.52-1.93a.52.52,0,0,0-.28-.23c-3.53-1.26-3-1.38-3.75.46-.81,2.06-2.21,5.18-2.65,6.36,1.75.68,2,.83,2.32.79a1.92,1.92,0,0,0,.88-.56,2.55,2.55,0,0,1,.26-.38.6.6,0,0,1,.85.61,16.55,16.55,0,0,1-1,3.09c-.13.2-.23.68-.64.52a1,1,0,0,1-.5-.56c-.11-.28.16-1.19-.6-1.47-.28-.09-2-.73-2.12-.78s-.18.47-1.54,3.93c-.43,1.1-.49.83,3.54,2.26.47.17.64-.18.8-.55.39-1.07-.26-1-.17-1.35a.14.14,0,0,1,0-.06c0-.07.11-.09.19-.08a20,20,0,0,1,2.55.83c.22.14.27.33.17.48s-.29.06-.48.15S51.27,125.34,50.84,126.69Z"/><path class="cls-6" d="M67.68,114.86a.84.84,0,0,0-.14.3c-.15,1-.27,1.9-.4,2.66s-.23,1.51-.3,1.92L66.3,123c-.12.73-.25,1.48-.37,2.25-.17,1-.35,2.08-.52,3.12a3.36,3.36,0,0,1-.1.58,2.66,2.66,0,0,0-.1.49.14.14,0,0,0,0,.11.26.26,0,0,0,.15.19c.13.05.23.08.26.22a.61.61,0,0,1,0,.19.26.26,0,0,1-.11.22c-.16.12-.49,0-.72,0l-1-.16-.25-.09a1.33,1.33,0,0,1-.56-.59v0a9.89,9.89,0,0,1-.48-1.24,70.63,70.63,0,0,1-2.82-12,1.77,1.77,0,0,0-.16-.69l0,0c-.15.57-.28,1.18-.45,1.82s-.38,1.49-.58,2.17c-.28,1.08-.57,2.16-.84,3.24-.11.41-.27,1-.51,1.88s-.45,1.6-.7,2.58a.72.72,0,0,0,0,.33c.08.19.54.5.46.85s-.53.13-.79.08h-.06l-1.33-.35s0,0,0,0c-.25-.09-.72-.18-.64-.47s.65-.38.83-.51a3.06,3.06,0,0,0,.37-.77s0,0,0,0c.86-3,1.5-5.31,1.77-6.29,0,0,.7-2.64,1.07-3.9.2-.64.37-1.29.57-1.92s.43-1.3.24-1.63c-.07-.09-.23-.11-.39-.18a.41.41,0,0,1-.05-.34.26.26,0,0,1,.35-.16c.51.14,1,.24,1.49.35a6.1,6.1,0,0,1,.79.2c.58.23,2,10.31,3.18,13.64l.09.34c.21-1.31.79-4.52.79-4.55.18-1,.62-3.4,1.14-6.42a3.5,3.5,0,0,0,0-.84s0,0,0,0c-.06-.18-.46-.43-.4-.78s.38-.21.6-.17c0,0,0,0,.07,0h0l1.13.19h0c.23.09.63.11.58.4S67.79,114.71,67.68,114.86Z"/><path class="cls-6" d="M80,116a1.3,1.3,0,0,0-.09.31c0,1,0,1.92,0,2.7s0,1.51,0,1.93c0,1.12,0,2.22-.07,3.33,0,.74,0,1.5,0,2.28,0,1,0,2.1-.07,3.16a3.92,3.92,0,0,1,0,.59,2.74,2.74,0,0,0,0,.5.23.23,0,0,0,0,.11.3.3,0,0,0,.18.17c.13,0,.23,0,.28.17a.44.44,0,0,1,0,.19.25.25,0,0,1-.09.23c-.13.15-.47.1-.71.09l-1,0a1.72,1.72,0,0,1-.26,0,1.31,1.31,0,0,1-.63-.51v0a8.83,8.83,0,0,1-.65-1.17,69.74,69.74,0,0,1-4.49-11.52,1.91,1.91,0,0,0-.25-.66l0,0c-.06.59-.11,1.22-.18,1.87s-.17,1.52-.27,2.23c-.13,1.11-.25,2.22-.37,3.33,0,.42-.12,1.07-.24,1.92s-.21,1.66-.32,2.66a.82.82,0,0,0,0,.32c.11.18.61.43.58.78s-.5.21-.76.2l-.06,0L69.11,131s0,0,0,0c-.26-.06-.74-.07-.7-.37s.59-.47.74-.62a2.92,2.92,0,0,0,.26-.82v0c.43-3,.74-5.47.86-6.47,0,0,.31-2.72.5-4,.11-.66.19-1.33.29-2s.24-1.35,0-1.65c-.09-.08-.24-.07-.41-.12a.38.38,0,0,1-.09-.33.25.25,0,0,1,.31-.21c.53.06,1,.1,1.51.14a5.69,5.69,0,0,1,.81.08c.61.15,3.42,9.92,5.06,13.06l.14.32c0-1.33.14-4.59.14-4.62,0-1,.12-3.45.21-6.52a3.27,3.27,0,0,0-.1-.83s0,0,0,0-.51-.36-.5-.71.34-.26.56-.26a.06.06,0,0,1,.07,0h0l1.14,0h0c.24,0,.64,0,.64.31S80.08,115.83,80,116Z"/><path class="cls-6" d="M93.22,130.85c0,.29-.13.22-.42.26-.93.21-8.67.62-9.06.52l-.32,0c-.29,0-.5-.21-.5-.42s.12-.29.36-.4c.8-.42.54-1.42.53-2v0c-.16-3.92-.25-7.82-.33-11.73,0-1.37-.64-.94-.73-1.38s.09-.51.5-.56c-.23.13,8.31-.55,8.56-.54s.22.14.23.29c0,.33-.07.35-.29.52s-.16,1,0,2.73c0,.38-.07.92.4,1.1.14,0,.24.08.26.25,0,.33-.45.41-1.39.51-.17,0-.8.08-1,.07s-.42,0-.46-.13v-.06c0-.21.29-.37.35-.48s.12-.47,0-1.75c-.21-1.73-.1-1.81-.32-2a.52.52,0,0,0-.34-.09c-3.69.28-3.29,0-3.19,1.94.1,2.21.1,5.63.18,6.89,1.85-.09,2.15-.07,2.41-.23a1.8,1.8,0,0,0,.56-.87,3.26,3.26,0,0,1,.09-.45.59.59,0,0,1,1,.21,16.41,16.41,0,0,1,.37,3.23c0,.23.07.71-.36.73a1.09,1.09,0,0,1-.68-.3c-.22-.22-.34-1.16-1.13-1.1l-2.22.15s0,.5.19,4.2c.06,1.18-.11,1,4.1.64.49,0,.51-.42.5-.82-.08-1.14-.61-.78-.7-1.17v-.06c0-.09.06-.13.14-.16a19.45,19.45,0,0,1,2.64-.27c.26,0,.38.19.35.36s-.24.18-.38.34S93.06,129.44,93.22,130.85Z"/><path class="cls-6" d="M107.21,125.56c.31.16.34.57.36.84a4.15,4.15,0,0,1,0,1.06c-.06.25-.1.53-.17.78a.73.73,0,0,1-.23.41,3.82,3.82,0,0,1-.87.22l-1,.26c-.61.14-1.26.26-1.91.4l-1.34.28c-1,.21-3.29.61-3.45.62a10.58,10.58,0,0,1-1.26.16c-.26,0-.72.13-.76-.16s.43-.6.54-.78a3.35,3.35,0,0,0,0-1.07l0-.27c-.34-2.19-.62-4.38-.94-6.57-.24-1.58-.46-3.19-.69-4.8v0s0-.1,0-.16c0-.25-.07-.48-.11-.73a3.58,3.58,0,0,0-.21-.63.82.82,0,0,0-.47-.38c-.16-.06-.32-.08-.36-.35a.44.44,0,0,1,.35-.5,19.81,19.81,0,0,1,2.88-.55c.24,0,.63-.11.68.18s-.36.6-.41.78a4.12,4.12,0,0,0,.08,1.31c.13.84.23,1.35.29,1.66h0l.45,2.42.87,4.73c.2,1.07.39,2.15.59,3.23.05.25.1.51.14.76a.27.27,0,0,0,.12.2.47.47,0,0,0,.27,0,40.22,40.22,0,0,0,4-.86c.55-.15,1.08-.19,1.4-.63a6,6,0,0,0,.43-1.15.9.9,0,0,1,0-.19.81.81,0,0,1,.33-.45.62.62,0,0,1,.45-.1A.16.16,0,0,1,107.21,125.56Z"/><path class="cls-6" d="M120.6,121c.33.11.42.51.47.78a4.22,4.22,0,0,1,.11,1c0,.27,0,.54-.07.81a.67.67,0,0,1-.17.43,4,4,0,0,1-.84.34c-.32.13-.64.28-1,.4l-1.85.68c-.43.15-.88.32-1.31.46-1,.36-3.2,1.08-3.35,1.12-.41.12-.81.25-1.23.33-.26,0-.71.23-.79,0s.36-.66.43-.86a3.16,3.16,0,0,0-.13-1.06c0-.12-.06-.2-.07-.26-.64-2.12-1.23-4.25-1.86-6.37-.46-1.53-.91-3.09-1.36-4.65v0a1.46,1.46,0,0,1,0-.17c-.08-.24-.15-.46-.22-.7a3.06,3.06,0,0,0-.3-.6.79.79,0,0,0-.51-.3c-.18,0-.34,0-.42-.3a.46.46,0,0,1,.28-.54,18.54,18.54,0,0,1,2.8-1c.24-.06.61-.21.71.07s-.28.65-.31.83a4.07,4.07,0,0,0,.27,1.29c.24.81.41,1.31.51,1.61h0c.26.78.52,1.56.79,2.34.51,1.52,1,3,1.52,4.56l1,3.11c.08.24.17.5.24.74,0,.06.05.14.15.18a.41.41,0,0,0,.26,0,37.18,37.18,0,0,0,3.83-1.42c.54-.22,1.06-.34,1.32-.83a6.66,6.66,0,0,0,.27-1.2,1.09,1.09,0,0,1,0-.19.92.92,0,0,1,.27-.5.6.6,0,0,1,.44-.16Z"/><path class="cls-6" d="M135,116.94a20.82,20.82,0,0,1-2.71,1.6c-.22.11-.61.35-.77.12s.42-.69,0-1.26a30.07,30.07,0,0,0-1.89-2.35c-.72.52-4.31,2.41-4.31,2.39s.25,2.48.25,2.55c0,.24,0,.59.22.76s.57,0,.76.12c.73.5-1.19,1.3-1.64,1.41-.26.07-.51.09-.64-.1s.14-.48.22-.75c.33-1-.68-7.24-1.5-12.49a8,8,0,0,0-.7-2.89c-.33-.58-.49-.78.51-1.36,1.5-.91,1.07.45,11,11.14a.94.94,0,0,0,.33.25c.52.3.92-.14,1.21.17S135.25,116.72,135,116.94Zm-5.92-2.67c-.78-1-4.43-5.52-5.4-6.73-.05-.09-.2,0-.19.08.35,1.68,1.67,7.82,1.66,8.81C125.13,116.46,129.09,114.34,129.05,114.27Z"/><line class="cls-7" y1="65.93" x2="30" y2="65.93"/><line class="cls-7" x1="138" y1="65.93" x2="168" y2="65.93"/></svg>